<svg xmlns="http://www.w3.org/2000/svg" viewBox="0 0 512 512" role="img" aria-labelledby="title desc">
  <title id="title">AURORA cruise intelligence logo</title>
  <desc id="desc">A bold cruise ship icon set against calm aurora lights and a travel route cue.</desc>
  <defs>
    <linearGradient id="sky" x1="78" y1="34" x2="438" y2="480" gradientUnits="userSpaceOnUse">
      <stop offset="0" stop-color="#2b8274"/>
      <stop offset="0.46" stop-color="#1c5b58"/>
      <stop offset="1" stop-color="#1f7566"/>
    </linearGradient>
    <radialGradient id="glow" cx="50%" cy="26%" r="73%">
      <stop offset="0" stop-color="#69ffc2" stop-opacity="0.26"/>
      <stop offset="0.45" stop-color="#89e3d8" stop-opacity="0.12"/>
      <stop offset="1" stop-color="#123b3c" stop-opacity="0"/>
    </radialGradient>
    <linearGradient id="aurora" x1="66" y1="114" x2="442" y2="210" gradientUnits="userSpaceOnUse">
      <stop offset="0" stop-color="#41e99c"/>
      <stop offset="0.55" stop-color="#91eadf"/>
      <stop offset="1" stop-color="#b7a7ff"/>
    </linearGradient>
    <linearGradient id="ship" x1="112" y1="164" x2="398" y2="448" gradientUnits="userSpaceOnUse">
      <stop offset="0" stop-color="#ffffff"/>
      <stop offset="0.58" stop-color="#ecfffb"/>
      <stop offset="1" stop-color="#bff1e6"/>
    </linearGradient>
    <linearGradient id="hullShade" x1="256" y1="305" x2="256" y2="454" gradientUnits="userSpaceOnUse">
      <stop offset="0" stop-color="#fbfffd"/>
      <stop offset="1" stop-color="#aee5db"/>
    </linearGradient>
    <clipPath id="round">
      <rect x="22" y="22" width="468" height="468" rx="96"/>
    </clipPath>
  </defs>

  <rect x="22" y="22" width="468" height="468" rx="96" fill="url(#sky)"/>
  <rect x="22" y="22" width="468" height="468" rx="96" fill="url(#glow)"/>
  <g clip-path="url(#round)">
    <path d="M-8 143c80-48 159-57 237-26 54 22 112 17 174-14 30-15 59-22 86-20" fill="none" stroke="#55f0a7" stroke-width="36" stroke-linecap="round" opacity="0.2"/>
    <path d="M54 188c73-56 145-71 216-44 55 20 110 9 166-34" fill="none" stroke="url(#aurora)" stroke-width="19" stroke-linecap="round" opacity="0.9"/>
    <path d="M103 232c58-36 116-42 174-18 42 17 84 13 127-11" fill="none" stroke="#9af0e5" stroke-width="10" stroke-linecap="round" opacity="0.54"/>
    <path d="M324 119c30 9 55 26 75 50" fill="none" stroke="#d7fff3" stroke-width="7" stroke-linecap="round" stroke-dasharray="1 17" opacity="0.72"/>
    <circle cx="314" cy="117" r="7" fill="#eafff9"/>
    <circle cx="407" cy="175" r="7" fill="#eafff9"/>

    <g transform="translate(256 330) scale(0.91) translate(-256 -330)">
    <ellipse cx="256" cy="420" rx="165" ry="30" fill="#0f3638" opacity="0.2"/>

    <path d="M177 176h158c17 0 32 11 38 27l12 31H127l12-32c6-16 21-26 38-26Z" fill="url(#ship)"/>
    <path d="M157 228h198c18 0 34 11 41 28l14 36H102l14-36c7-17 23-28 41-28Z" fill="#f5fffc"/>
    <path d="M122 279h268l36 46H86l36-46Z" fill="#ecfffb"/>

    <g fill="#164d4e" opacity="0.8">
      <rect x="181" y="197" width="31" height="18" rx="6"/>
      <rect x="226" y="197" width="31" height="18" rx="6"/>
      <rect x="271" y="197" width="31" height="18" rx="6"/>
      <rect x="316" y="197" width="31" height="18" rx="6"/>
      <rect x="151" y="251" width="29" height="17" rx="6"/>
      <rect x="196" y="251" width="29" height="17" rx="6"/>
      <rect x="241" y="251" width="29" height="17" rx="6"/>
      <rect x="286" y="251" width="29" height="17" rx="6"/>
      <rect x="331" y="251" width="29" height="17" rx="6"/>
    </g>

    <path d="M73 314h366l-31 82c-18 48-70 75-152 81-82-6-134-33-152-81L73 314Z" fill="url(#hullShade)"/>
    <path d="M73 314h366" fill="none" stroke="#143f42" stroke-width="9" stroke-linecap="round" opacity="0.35"/>
    <path d="M256 329v121" fill="none" stroke="#28776c" stroke-width="7" stroke-linecap="round" opacity="0.38"/>
    <path d="M122 351c39 15 84 22 134 22s95-7 134-22" fill="none" stroke="#28776c" stroke-width="9" stroke-linecap="round" opacity="0.64"/>
    <path d="M143 393c31 18 69 28 113 29 44-1 82-11 113-29" fill="none" stroke="#1e615c" stroke-width="7" stroke-linecap="round" opacity="0.36"/>

    <path d="M82 439c45-22 90-22 135 0 40 19 80 19 119 0 34-16 67-20 99-12" fill="none" stroke="#9af0e5" stroke-width="13" stroke-linecap="round" opacity="0.66"/>
    <path d="M111 462c45-12 87-9 126 9 31 14 64 12 99-6" fill="none" stroke="#44dd98" stroke-width="8" stroke-linecap="round" opacity="0.42"/>
    </g>
  </g>
</svg>
