<svg xmlns="http://www.w3.org/2000/svg" viewBox="0 0 512 512">
  <defs>
    <linearGradient id="sky" x1="42" y1="20" x2="478" y2="506" gradientUnits="userSpaceOnUse">
      <stop offset="0" stop-color="#2f8a7a"/>
      <stop offset="0.5" stop-color="#1d5b58"/>
      <stop offset="1" stop-color="#267564"/>
    </linearGradient>
    <radialGradient id="glow" cx="50%" cy="24%" r="76%">
      <stop offset="0" stop-color="#6affc3" stop-opacity=".29"/>
      <stop offset=".48" stop-color="#8ce7dc" stop-opacity=".1"/>
      <stop offset="1" stop-color="#103d3d" stop-opacity="0"/>
    </radialGradient>
    <linearGradient id="aurora" x1="34" y1="122" x2="482" y2="208" gradientUnits="userSpaceOnUse">
      <stop offset="0" stop-color="#3bea9c"/>
      <stop offset=".55" stop-color="#91eadf"/>
      <stop offset="1" stop-color="#b7a7ff"/>
    </linearGradient>
    <linearGradient id="hull" x1="256" y1="310" x2="256" y2="466" gradientUnits="userSpaceOnUse">
      <stop offset="0" stop-color="#fbfffd"/>
      <stop offset="1" stop-color="#b7eae0"/>
    </linearGradient>
  </defs>
  <rect width="512" height="512" fill="url(#sky)"/>
  <rect width="512" height="512" fill="url(#glow)"/>
  <path d="M-22 133c86-47 168-53 246-21 56 23 116 17 180-17 38-20 78-27 124-20" fill="none" stroke="#55f0a7" stroke-width="44" stroke-linecap="round" opacity=".16"/>
  <path d="M28 183c82-62 158-75 229-40 57 28 118 16 183-37 28-22 51-32 73-31" fill="none" stroke="url(#aurora)" stroke-width="22" stroke-linecap="round" opacity=".94"/>
  <path d="M63 230c71-44 137-49 198-16 47 25 100 19 159-19" fill="none" stroke="#a0f3e8" stroke-width="10" stroke-linecap="round" opacity=".52"/>
  <path d="M334 103c34 9 61 29 82 59" fill="none" stroke="#e7fff8" stroke-width="7" stroke-linecap="round" stroke-dasharray="1 18" opacity=".76"/>
  <g transform="translate(256 336) scale(.82) translate(-256 -336)">
    <ellipse cx="256" cy="430" rx="170" ry="32" fill="#0c3435" opacity=".2"/>
    <path d="M175 167h162c18 0 34 11 40 29l13 34H122l13-34c6-18 22-29 40-29Z" fill="#f7fffd"/>
    <path d="M152 222h208c20 0 37 12 44 31l15 40H93l15-40c7-19 24-31 44-31Z" fill="#effdfa"/>
    <path d="M112 284h288l39 50H73l39-50Z" fill="#e5f9f5"/>
    <g fill="#174f50" opacity=".78">
      <rect x="177" y="190" width="32" height="19" rx="6"/>
      <rect x="224" y="190" width="32" height="19" rx="6"/>
      <rect x="271" y="190" width="32" height="19" rx="6"/>
      <rect x="318" y="190" width="32" height="19" rx="6"/>
      <rect x="145" y="248" width="31" height="18" rx="6"/>
      <rect x="193" y="248" width="31" height="18" rx="6"/>
      <rect x="241" y="248" width="31" height="18" rx="6"/>
      <rect x="289" y="248" width="31" height="18" rx="6"/>
      <rect x="337" y="248" width="31" height="18" rx="6"/>
    </g>
    <path d="M62 323h388l-33 87c-20 52-74 80-161 87-87-7-141-35-161-87l-33-87Z" fill="url(#hull)"/>
    <path d="M62 323h388" fill="none" stroke="#143f42" stroke-width="9" stroke-linecap="round" opacity=".36"/>
    <path d="M256 340v127" fill="none" stroke="#28776c" stroke-width="7" stroke-linecap="round" opacity=".34"/>
    <path d="M113 363c41 16 89 23 143 23s102-7 143-23" fill="none" stroke="#28776c" stroke-width="9" stroke-linecap="round" opacity=".62"/>
    <path d="M135 408c34 19 74 29 121 30 47-1 87-11 121-30" fill="none" stroke="#1e615c" stroke-width="7" stroke-linecap="round" opacity=".35"/>
  </g>
  <path d="M55 465c51-24 103-24 154 0 44 21 89 20 133-1 38-18 75-22 112-12" fill="none" stroke="#9af0e5" stroke-width="14" stroke-linecap="round" opacity=".63"/>
  <path d="M82 493c50-13 96-9 139 10 35 16 72 13 111-7" fill="none" stroke="#44dd98" stroke-width="9" stroke-linecap="round" opacity=".38"/>
</svg>
